# xmcd
#
# Track frame offsets: 
#        150
#        26107
#        54255
#        76175
#        96800
#        120907
#        143022
#        163772
#        186932
#        214452
#        236325
#        252792
#
# Disc length: 3693 seconds
#
# Revision: 1
# Processed by: cddbd v1.5.2PL0 Copyright (c) Steve Scherf et al.
# Submitted via: ExactAudioCopy v0.95a5
#
DISCID=980e6b0c
DTITLE=Lee Ritenour - A Twist Of Motown
DYEAR=2003
DGENRE=Jazz
TTITLE0=Inner City Blues
TTITLE1=Papa Was A Rollin' Stone
TTITLE2=Never Can Say Goodbye
TTITLE3=Just My Imagination
TTITLE4=I Heard It Through The Grapevine
TTITLE5=The Tracks Of My Tears
TTITLE6=You Haven't Done Nothin'
TTITLE7=Creepin'
TTITLE8=Medley:War/What's Going On
TTITLE9=All This Love
TTITLE10=Got To Be There
TTITLE11=Medley:War/What's Going On (Alternative)
EXTD=YEAR: 2003
EXTT0=
EXTT1=
EXTT2=
EXTT3=
EXTT4=
EXTT5=
EXTT6=
EXTT7=
EXTT8=
EXTT9=
EXTT10=
EXTT11=
PLAYORDER=
